<svg width="80" height="80" viewBox="0 0 80 80" fill="none" xmlns="http://www.w3.org/2000/svg">
<path d="M50 58V54C50 51.8783 49.1571 49.8434 47.6569 48.3431C46.1566 46.8429 44.1217 46 42 46H26C23.8783 46 21.8434 46.8429 20.3431 48.3431C18.8429 49.8434 18 51.8783 18 54V58" stroke="#888888" stroke-width="2" stroke-linecap="round" stroke-linejoin="round"/>
<path d="M34 38C38.4183 38 42 34.4183 42 30C42 25.5817 38.4183 22 34 22C29.5817 22 26 25.5817 26 30C26 34.4183 29.5817 38 34 38Z" stroke="#888888" stroke-width="2" stroke-linecap="round" stroke-linejoin="round"/>
<path d="M62 57.9998V53.9998C61.9987 52.2272 61.4087 50.5053 60.3227 49.1044C59.2367 47.7035 57.7163 46.7029 56 46.2598" stroke="#888888" stroke-width="2" stroke-linecap="round" stroke-linejoin="round"/>
<path d="M48 22.2598C49.7208 22.7004 51.2461 23.7012 52.3353 25.1044C53.4245 26.5076 54.0157 28.2334 54.0157 30.0098C54.0157 31.7861 53.4245 33.5119 52.3353 34.9151C51.2461 36.3184 49.7208 37.3192 48 37.7598" stroke="#888888" stroke-width="2" stroke-linecap="round" stroke-linejoin="round"/>
</svg>
